<?xml version="1.0" encoding="UTF-8"?>
<svg width="240px" height="420px" viewBox="0 0 240 420" version="1.1" xmlns="http://www.w3.org/2000/svg" xmlns:xlink="http://www.w3.org/1999/xlink">

    <!-- <path d="M 40 458.8 C 12.3 458.9 0.7 447.3 0.7 424 C 0.7 400.7 0.7 309 0.7 148.9 C 1.3 124.7 13.4 112.6 37 112.6 C 72.4 112.6 72.7 112.6 101.1 112.6 C 130.4 112.6 130.4 90.2 130.4 90.2 C 130.4 90.2 130.4 88.5 130.4 85.1 C 130.4 70.4 120.6 63 101.1 63 C 81.6 63 79.7 63 95.5 63" id="Path-6" stroke="#ffffff" opacity="0.5" fill="none"></path> -->
    <circle id="Oval-Copy-5" stroke="#979797" fill="#ffffff" cx="88" cy="64" r="3"></circle>

    <path stroke="#ffffff" opacity="0.5" fill="none"
            d="M 88 64
            h 10
            q 24 0 24 24
            q 0 24 -24 24
            h -72
            q -24 0 -24 24
            v 256"/>

</svg>