<?xml version="1.0" encoding="UTF-8"?>
<svg width="13px" height="14px" viewBox="0 0 13 13" version="1.1" xmlns="http://www.w3.org/2000/svg" xmlns:xlink="http://www.w3.org/1999/xlink">
    <title>Path</title>
    <g id="Page-1" stroke="none" stroke-width="1" fill="none" fill-rule="evenodd">
        <g id="Artboard" transform="translate(-126,-43)" fill="#ffffff" fill-rule="nonzero">
            <g id="S-P-L-I-C-E" transform="translate(76.5,43.1)">
                <path d="M 56.7 13.1 C 59 13.1 61 12 62.1 10.2 L 59.6 8.7 C 59 9.7 58 10.3 56.7 10.3 C 54.4 10.3 53 8.8 53 6.6 C 53 4.3 54.4 2.8 56.7 2.8 C 58 2.8 59 3.4 59.6 4.4 L 62.1 2.9 C 61 1.1 59 0 56.7 0 C 52.9 0 50.1 2.8 50.1 6.6 C 50.1 10.3 52.9 13.1 56.7 13.1 Z" id="Path"></path>
            </g>
        </g>
    </g>
</svg>