<?xml version="1.0" encoding="UTF-8"?>
<svg width="11px" height="14px" viewBox="0 0 11 13" version="1.1" xmlns="http://www.w3.org/2000/svg" xmlns:xlink="http://www.w3.org/1999/xlink">
    <title>Path</title>
    <g id="Page-1" stroke="none" stroke-width="1" fill="none" fill-rule="evenodd">
        <g id="Artboard" transform="translate(-76.000000, -43.000000)" fill="#FFFFFF" fill-rule="nonzero">
            <g id="S-P-L-I-C-E" transform="translate(76.450000, 43.148000)">
                <path d="M5.04,13.104 C7.776,13.104 9.72,11.664 9.72,9.234 C9.72,6.57 7.578,5.904 5.67,5.328 C3.708,4.734 3.402,4.338 3.402,3.762 C3.402,3.258 3.852,2.808 4.752,2.808 C5.904,2.808 6.498,3.366 6.93,4.266 L9.36,2.844 C8.442,0.99 6.822,0 4.752,0 C2.574,0 0.522,1.404 0.522,3.834 C0.522,6.246 2.358,7.146 4.23,7.668 C6.12,8.19 6.84,8.496 6.84,9.27 C6.84,9.756 6.498,10.296 5.13,10.296 C3.708,10.296 2.934,9.594 2.484,8.55 L0,9.99 C0.702,11.844 2.394,13.104 5.04,13.104 Z" id="Path"></path>
            </g>
        </g>
    </g>
</svg>